<?xml version="1.0" encoding="UTF-8"?>
<svg height="25px" width="25px" version="1.1" xmlns="http://www.w3.org/2000/svg">
 <path class="prueba" fill="#fff" d="m13.084 0.23a0.751 0.751 0 0 0-0.736 0.75v14.267a0.75 0.75 0 1 0 1.5 0v-14.267a0.75 0.75 0 0 0-0.763-0.75zm11.356 4.274a0.752 0.752 0 0 0-0.284 0.064l-6.44 2.875a0.752 0.752 0 0 0 0 1.37l6.44 2.884a0.75 0.75 0 0 0 0.612-1.369l-4.907-2.198 4.907-2.191a0.753 0.753 0 0 0 0.38-0.99 0.752 0.752 0 0 0-0.708-0.444zm-23.069 5.159a0.752 0.752 0 0 0-0.74 0.938c1.779 6.846 7.972 11.629 15.054 11.629a0.7505 0.7505 0 1 0 0-1.501 14.053 14.053 0 0 1-13.602-10.504 0.75 0.75 0 0 0-0.712-0.561z"/>
</svg>
